<?xml version="1.0" standalone="no"?><!DOCTYPE svg PUBLIC "-//W3C//DTD SVG 1.1//EN" "http://www.w3.org/Graphics/SVG/1.1/DTD/svg11.dtd"><svg t="1674725125707" class="icon" viewBox="0 0 1024 1024" version="1.1" xmlns="http://www.w3.org/2000/svg" p-id="4349" xmlns:xlink="http://www.w3.org/1999/xlink" width="200" height="200"><path d="M869.82594893 581.09090908c-132.15909112-135-118.7499999-186.36363633-99.31818164-240.22727314C790.05322197 287 742.78049433 49.84090947 567.66685801 141.99999981c-175.11363633 92.27272763-122.95454502 215.68181836-247.84090928 210.11363613-124.88636338-5.4545458-278.40909112 61.59090937-186.81818203 308.86363652 35.79545479 96.59090918 103.86363604 190.34090948 209.2045456 203.86363623 105.34090869 13.52272763 278.29545469-20.90909092 383.63636426 31.47727324 105.22727315 52.38636328 276.02272705-180.22727285 143.97727237-315.22727285zM697.32594863 834.15909131c-88.86363662-41.36363614-234.31818164-17.0454542-323.63636308-26.93181885-89.31818144-9.88636377-158.18181856-72.15909082-187.50000059-150.22727227-75.11363614-199.54545469 70.11363604-255.90909112 176.13636416-252.72727295 105.90909082 3.18181816 61.02272724-120.34090898 210.56818184-196.81818222 149.54545459-76.47727237 159.09090908 121.59090879 142.04545401 165.45454629-19.77272754 50.68181778-18.06818203 98.75000039 97.61363701 211.59090879C923.46231289 692.68181856 786.30322167 875.63636386 697.32594863 834.15909131z m1e-8 0" fill="#6E72DF" p-id="4350"></path><path d="M253.12140372 535.29545498c-48.06818174 41.36363614-6.81818203 139.43181797 55.11363573 159.5454539 62.0454542 20.11363594 123.2954543-2.04545479 171.47727334-43.97727216 48.06818174-42.04545469 41.70454541-186.59090918-38.29545527-148.97727334-79.88636338 37.38636386-90.22727285-51.02272705-188.29545381 33.4090916z m-1e-8 0" fill="#FF7272" p-id="4351"></path><path d="M601.98504013 257.34090869c-57.38636338 14.77272744-111.47727305 111.13636377-88.29545448 154.09090987 23.18181855 42.72727237 73.18181777 118.86363633 56.81818125 173.97727206-16.36363653 55.0000002-4.20454512 121.81818164 50.56818222 141.59090919 54.77272734 19.77272754 171.81818174 13.18181836 173.2954544-44.5454543 1.47727266-57.72727266-138.18181817-119.2045456-142.15909131-213.52272715-3.86363672-94.31818154 43.06818164-235.68181787-50.22727208-211.59090967z m0 0" fill="#F6C244" p-id="4352"></path></svg>